# xmcd CD database file
#
# Track frame offsets:
#	150
#	20454
#	42166
#	61856
#	83353
#	109066
#	131317
#	151019
#	169454
#	188467
#	215105
#	238461
#
# Disc length: 3443 seconds
#
# Revision: 0
# Processed by: cddbd v1.5.1PL2 Copyright (c) Steve Scherf et al.
# Submitted via: CDex 1.51
#
DISCID=950d710c
DTITLE=3rd Force - Collective Force
DYEAR=2000
DGENRE=Jazz
TTITLE0=Dance With Me
TTITLE1=Sweet Surrender
TTITLE2=Bridge Of Dreams
TTITLE3=In The Full Moon Light
TTITLE4=You Gotta Be Real
TTITLE5=You Know My Heart
TTITLE6=Something Special
TTITLE7=Coming Home
TTITLE8=Listen To Your Heart
TTITLE9=Here Comes The Night
TTITLE10=Revelation Of The Heart
TTITLE11=No Doubt
EXTD=YEAR: 2000
EXTT0=
EXTT1=
EXTT2=
EXTT3=
EXTT4=
EXTT5=
EXTT6=
EXTT7=
EXTT8=
EXTT9=
EXTT10=
EXTT11=
PLAYORDER=
